<svg width="16px" height="16px" viewBox="0 0 16 16" version="1.1" xmlns="http://www.w3.org/2000/svg" xmlns:xlink="http://www.w3.org/1999/xlink">
    <g id="Page-1" stroke="none" stroke-width="1" fill="none" fill-rule="evenodd" opacity="0.3">
        <g id="Custom-fields" transform="translate(-814.000000, -45.000000)" fill="#000000" fill-rule="nonzero">
            <g id="Search" transform="translate(799.000000, 33.000000)">
                <g id="noun_945382" transform="translate(15.000000, 12.000000)">
                    <path d="M6.32504259,0 C2.84504136,0 0,2.84504681 0,6.3250423 C0,9.80503964 2.84504136,12.6500995 6.32504259,12.6500995 C7.66533772,12.6500995 8.9095294,12.2284424 9.93519087,11.5106617 L14.091823,15.6730976 C14.5276929,16.1089675 15.2372138,16.1089675 15.6730837,15.6730976 C16.1089721,15.2372278 16.1089721,14.5277255 15.6730837,14.0918371 L11.5106475,9.93520529 C12.2284283,8.90954387 12.6500854,7.66533364 12.6500854,6.3250423 C12.6500854,2.84504123 9.80502521,0 6.32504259,0 Z M6.32504259,2.23236787 C8.59854194,2.23236787 10.4177172,4.05152445 10.4177172,6.3250423 C10.4177172,8.59853782 8.59854194,10.4177316 6.32504259,10.4177316 C4.05152463,10.4177316 2.23236797,8.59853782 2.23236797,6.3250423 C2.23236797,4.05151886 4.05152463,2.23236787 6.32504259,2.23236787 Z" id="Shape"></path>
                </g>
            </g>
        </g>
    </g>
</svg>